<?xml version="1.0" standalone="no"?><!DOCTYPE svg PUBLIC "-//W3C//DTD SVG 1.1//EN" "http://www.w3.org/Graphics/SVG/1.1/DTD/svg11.dtd"><svg t="1567768678231" class="icon" viewBox="0 0 1024 1024" version="1.1" xmlns="http://www.w3.org/2000/svg" p-id="2902" xmlns:xlink="http://www.w3.org/1999/xlink" width="48" height="48"><defs><style type="text/css"></style></defs><path d="M864.063 63.944h-703.43c-49.979 0-90.597 40.619-90.597 90.597v703.553c0 49.981 40.619 90.598 90.597 90.598h703.493c49.974 0 90.593-40.619 90.593-90.598V154.479c-0.058-49.979-40.681-90.534-90.657-90.534zM783.95 315.329l-1.872 0.997-0.249 2.122c-19.284 133.089-135.147 233.48-269.482 233.48-134.332 0-250.198-100.39-269.478-233.48l-0.313-2.122-1.872-0.997c-13.351-7.924-21.339-21.338-21.339-36.063 0-23.337 18.967-42.305 42.364-42.305 23.337 0 42.306 18.967 42.306 42.305 0 12.291-5.554 23.768-15.723 32.192l-1.999 1.56 0.435 2.497c17.784 111.623 112.686 192.612 225.618 192.612 112.934 0 207.835-81.052 225.618-192.612l0.436-2.435-1.931-1.559c-10.231-8.487-15.726-19.902-15.726-32.197 0-23.332 18.967-42.306 42.305-42.306 23.396 0 42.364 18.968 42.364 42.306-0.063 14.665-8.047 28.079-21.461 36.003z" p-id="2903" fill="#1296db"></path></svg>